<?xml version="1.0" encoding="UTF-8" standalone="no"?>
<!-- Uploaded to: SVG Repo, www.svgrepo.com, Generator: SVG Repo Mixer Tools -->

<svg
   aria-label="Email"
   role="img"
   viewBox="0 0 545.08496 545.21063"
   version="1.1"
   id="svg2145"
   sodipodi:docname="email.svg"
   xml:space="preserve"
   width="545.08496"
   height="545.21063"
   inkscape:version="1.2 (dc2aedaf03, 2022-05-15)"
   xmlns:inkscape="http://www.inkscape.org/namespaces/inkscape"
   xmlns:sodipodi="http://sodipodi.sourceforge.net/DTD/sodipodi-0.dtd"
   xmlns="http://www.w3.org/2000/svg"
   xmlns:svg="http://www.w3.org/2000/svg"><defs
     id="defs2149" /><sodipodi:namedview
     id="namedview2147"
     pagecolor="#505050"
     bordercolor="#eeeeee"
     borderopacity="1"
     inkscape:showpageshadow="0"
     inkscape:pageopacity="0"
     inkscape:pagecheckerboard="0"
     inkscape:deskcolor="#505050"
     showgrid="false"
     inkscape:zoom="1.1932427"
     inkscape:cx="575.32303"
     inkscape:cy="277.8144"
     inkscape:window-width="1920"
     inkscape:window-height="1051"
     inkscape:window-x="-9"
     inkscape:window-y="-9"
     inkscape:window-maximized="1"
     inkscape:current-layer="svg2145" /><path
     style="fill:#000000;stroke-width:1.06667"
     d="m 70.418324,544.86552 c -7.89155,-1.11455 -16.76246,-4.0095 -26.11562,-8.52263 -8.7352,-4.21496 -11.51373,-6.2805 -20.36075,-15.13615 -8.75054,-8.75906 -10.97037,-11.73339 -15.2165802,-20.38844 -9.53866005,-19.44269 -8.70704005,2.35937 -8.70704005,-228.26665 0,-230.626028 -0.83162,-208.823961 8.70704005,-228.266653 4.2473602,-8.657407 6.4610802,-11.62296 15.1988702,-20.360749 8.73779,-8.737789 11.70335,-10.951511 20.36075,-15.1988711 19.4427,-9.53866504 -2.35937,-8.70704304 228.266656,-8.70704304 230.62602,0 208.82396,-0.831622 228.26665,8.70704304 8.68584,4.2613051 11.5874,6.4323911 20.31264,15.1988711 11.46284,11.517008 17.23279,21.147892 21.50069,35.887771 l 2.45334,8.47298 V 272.55165 476.8183 l -2.45334,8.47297 c -4.27946,14.7798 -10.03535,24.37434 -21.50069,35.83967 -11.24103,11.24104 -20.61466,16.94821 -35.27516,21.47743 l -7.97081,2.46251 -202.13332,0.12329 c -111.17333,0.0678 -203.573326,-0.0801 -205.333326,-0.32865 z M 435.08714,406.0243 l 6.26884,-2.52734 -55.3355,-55.40784 C 355.58595,317.6148 329.33192,291.69588 327.6782,290.49152 l -3.00679,-2.18974 -17.25988,17.04455 c -20.30202,20.04872 -23.5222,22.0892 -34.85988,22.0892 -11.34424,0 -14.553,-2.03568 -34.93438,-22.16285 l -17.33436,-17.11816 -3.46564,3.0994 c -7.04247,6.2983 -111.73228,110.91688 -111.73228,111.65627 0,1.18177 3.59416,2.8381 9.81056,4.52109 4.80934,1.30205 28.73125,1.50053 159.78943,1.32582 l 154.13333,-0.20546 z m -287.86882,-75.87265 57.5926,-57.6 -57.5926,-57.6 C 115.5424,183.27166 89.298554,157.35166 88.898674,157.35166 c -0.39989,0 -1.84156,2.76 -3.20371,6.13333 l -2.47664,6.13333 v 102.93333 102.93333 l 2.47664,6.13333 c 1.36215,3.37333 2.80382,6.13333 3.20371,6.13333 0.39988,0 26.643726,-25.92 58.319646,-57.59999 z m 313.59327,46.25373 c 1.37458,-5.27737 1.60672,-20.28217 1.60672,-103.85373 0,-102.73205 -0.0526,-103.99148 -4.71006,-112.87784 l -1.49661,-2.85549 -57.96334,57.84877 -57.96332,57.84876 57.93405,57.88456 57.93406,57.88457 1.52589,-2.85549 c 0.83924,-1.57052 2.2489,-5.63137 3.13261,-9.02411 z m -102.13247,-152.23267 82.82149,-82.51226 -6.34115,-2.5544 -6.34115,-2.55439 H 272.55165 c -153.81855,0 -156.34882,0.0334 -161.51125,2.13378 -2.88453,1.17358 -5.41774,2.65322 -5.62936,3.2881 -0.21163,0.63488 36.58653,37.95467 81.77368,82.93288 72.87357,72.53661 82.52656,81.77856 85.41569,81.77856 2.89,0 12.59441,-9.30232 86.07871,-82.51227 z"
     id="path3060" /></svg>
